<svg width="28" height="28" viewBox="0 0 28 28" fill="none" xmlns="http://www.w3.org/2000/svg">
<g clip-path="url(#clip0_1477_3525)">
<circle cx="14.0002" cy="9.44444" r="3.79444" stroke="#545454" stroke-width="1.3"/>
<mask id="path-2-inside-1_1477_3525" fill="white">
<path d="M22 23.3333C23.1046 23.3333 24.0258 22.4206 23.7157 21.3604C23.2853 19.8887 22.3777 18.5296 21.0711 17.4408C19.1957 15.878 16.6522 15 14 15C11.3478 15 8.8043 15.878 6.92893 17.4408C5.62234 18.5296 4.71465 19.8887 4.28426 21.3604C3.97422 22.4206 4.89543 23.3333 6 23.3333L14 23.3333H22Z"/>
</mask>
<path d="M22 23.3333C23.1046 23.3333 24.0258 22.4206 23.7157 21.3604C23.2853 19.8887 22.3777 18.5296 21.0711 17.4408C19.1957 15.878 16.6522 15 14 15C11.3478 15 8.8043 15.878 6.92893 17.4408C5.62234 18.5296 4.71465 19.8887 4.28426 21.3604C3.97422 22.4206 4.89543 23.3333 6 23.3333L14 23.3333H22Z" stroke="#545454" stroke-width="2.6" mask="url(#path-2-inside-1_1477_3525)"/>
</g>
<defs>
<clipPath id="clip0_1477_3525">
<rect width="28" height="28" fill="white"/>
</clipPath>
</defs>
</svg>
