<svg width="26" height="26" viewBox="0 0 26 26" fill="none" xmlns="http://www.w3.org/2000/svg">
<path d="M25.3699 12.94C25.3799 19.74 19.8299 25.2901 13.0099 25.2901C6.18989 25.2901 0.649902 19.77 0.649902 12.95C0.649902 6.12001 6.15986 0.590122 12.9799 0.570122C19.7999 0.550122 25.3599 6.1 25.3699 12.94ZM5.62988 18.0601C5.79988 18.1701 5.87985 18.2301 5.96985 18.2801C7.32985 18.9701 8.75991 19.3402 10.2799 19.3602C15.4899 19.4502 19.5499 15.4 19.4199 10.24C19.4199 10.01 19.4599 9.87005 19.6799 9.75005C20.1999 9.45005 20.5699 9.00998 20.8799 8.41998C20.5599 8.51998 20.3298 8.59997 20.0898 8.65997C19.8698 8.71997 19.6399 8.7601 19.4199 8.8001C19.8899 8.2901 20.3199 7.81994 20.5399 7.12994C20.0199 7.35994 19.5599 7.55007 19.0999 7.77007C18.8099 7.90007 18.6098 7.85996 18.3398 7.64996C17.2498 6.77996 16.0299 6.64007 14.7899 7.27007C13.5799 7.88007 13.0099 8.91006 13.0599 10.2601C13.0599 10.4001 13.0599 10.55 13.0599 10.72C10.3399 10.69 8.34983 9.33 6.57983 7.44C5.73983 9.14 6.16982 10.4899 7.56982 11.6399L7.47986 11.7501L6.1499 11.3899C6.2799 12.8599 7.01983 13.8799 8.44983 14.3799L8.42993 14.49L7.18982 14.5501C7.43982 15.1401 7.7499 15.6801 8.2699 16.0101C8.7799 16.3401 9.35992 16.5501 9.91992 16.8201C8.73992 17.8501 7.23988 17.9701 5.62988 18.0501V18.0601Z" fill="white"/>
</svg>
