<svg width="26" height="26" viewBox="0 0 26 26" fill="none" xmlns="http://www.w3.org/2000/svg">
<path d="M25.1601 12.94C25.1401 19.78 19.5701 25.3201 12.7501 25.2901C5.90005 25.2601 0.419996 19.7202 0.439996 12.8502C0.459996 6.04015 6.02004 0.540113 12.86 0.560113C19.65 0.590113 25.1901 6.14999 25.1701 12.93L25.1601 12.94ZM12.82 7.44C11.12 7.54 9.3901 7.61005 7.6701 7.75005C6.0901 7.88005 5.47011 8.51013 5.31011 10.0801C5.12011 11.9901 5.12011 13.9101 5.31011 15.8201C5.46011 17.2701 6.04004 17.8601 7.49004 18.0501C9.83004 18.3501 12.1801 18.3501 14.5301 18.2801C15.7501 18.2501 16.97 18.1601 18.19 18.0301C19.48 17.8901 20.06 17.3501 20.2 16.0701C20.35 14.7601 20.3901 13.4399 20.4001 12.1299C20.4001 11.2799 20.3001 10.4201 20.1801 9.58013C20.0401 8.61013 19.45 8.03015 18.48 7.85015C18.28 7.81015 18.0801 7.77005 17.8801 7.75005C16.2001 7.65005 14.5201 7.55001 12.8101 7.45001L12.82 7.44Z" fill="white"/>
<path d="M12.8199 7.43994C14.5299 7.53994 16.21 7.62999 17.89 7.73999C18.09 7.74999 18.29 7.80009 18.49 7.84009C19.46 8.02009 20.0499 8.60007 20.1899 9.57007C20.3099 10.4201 20.41 11.2701 20.41 12.1201C20.41 13.4401 20.3599 14.7601 20.2099 16.0601C20.0699 17.3401 19.4899 17.88 18.1999 18.02C16.9899 18.15 15.76 18.24 14.54 18.27C12.19 18.34 9.83998 18.34 7.49998 18.04C6.04998 17.86 5.46992 17.2701 5.31992 15.8101C5.11992 13.9001 5.11992 11.9801 5.31992 10.0701C5.47992 8.50007 6.10003 7.86999 7.68003 7.73999C9.40003 7.59999 11.1199 7.52993 12.8299 7.42993L12.8199 7.43994ZM11.3 10.6499V15.2L15.23 12.9099L11.3 10.6499Z" fill="black"/>
<path d="M11.3 10.6499L15.23 12.9099L11.3 15.2V10.6499Z" fill="white"/>
</svg>
