<svg width="25" height="26" viewBox="0 0 25 26" fill="none" xmlns="http://www.w3.org/2000/svg">
<path d="M24.79 12.9299C24.79 19.7399 19.2401 25.29 12.4301 25.29C5.58005 25.29 0.0600586 19.7699 0.0600586 12.9199C0.0600586 6.09992 5.60004 0.570068 12.42 0.570068C19.23 0.570068 24.78 6.11993 24.78 12.9299H24.79ZM15.98 14.5L16.48 11.3301H13.49C13.49 10.4801 13.48 9.69993 13.49 8.92993C13.5 8.45993 13.73 8.06988 14.15 7.87988C14.5 7.72988 14.9 7.65011 15.28 7.61011C15.69 7.56011 16.11 7.6001 16.58 7.6001C16.58 6.8101 16.57 6.06007 16.58 5.32007C16.58 5.02007 16.47 4.95995 16.2 4.94995C15.49 4.93995 14.79 4.91011 14.08 4.86011C12.16 4.74011 10.75 5.71008 10.27 7.58008C10.14 8.10008 10.11 8.64994 10.08 9.18994C10.05 9.88994 10.08 10.5901 10.08 11.3501H7.27002V14.53H10.1V22.26H13.48V14.52H15.97L15.98 14.5Z" fill="white"/>
</svg>
