<svg width="14" height="14" viewBox="0 0 14 14" fill="none" xmlns="http://www.w3.org/2000/svg">
<mask id="path-1-inside-1_598_4568" fill="white">
<path d="M1.4 14L0 12.6L5.6 7L0 1.4L1.4 0L7 5.6L12.6 0L14 1.4L8.4 7L14 12.6L12.6 14L7 8.4L1.4 14Z"/>
</mask>
<path d="M1.4 14L0 12.6L5.6 7L0 1.4L1.4 0L7 5.6L12.6 0L14 1.4L8.4 7L14 12.6L12.6 14L7 8.4L1.4 14Z" fill="black"/>
<path d="M1.4 14L-0.0142132 15.4142L1.4 16.8284L2.81421 15.4142L1.4 14ZM0 12.6L-1.41421 11.1858L-2.82843 12.6L-1.41421 14.0142L0 12.6ZM5.6 7L7.01421 8.41421L8.42843 7L7.01421 5.58579L5.6 7ZM0 1.4L-1.41421 -0.0142135L-2.82843 1.4L-1.41421 2.81421L0 1.4ZM1.4 0L2.81421 -1.41421L1.4 -2.82843L-0.0142135 -1.41421L1.4 0ZM7 5.6L5.58579 7.01421L7 8.42843L8.41421 7.01421L7 5.6ZM12.6 0L14.0142 -1.41421L12.6 -2.82843L11.1858 -1.41421L12.6 0ZM14 1.4L15.4142 2.81421L16.8284 1.4L15.4142 -0.0142132L14 1.4ZM8.4 7L6.98579 5.58579L5.57157 7L6.98579 8.41421L8.4 7ZM14 12.6L15.4142 14.0142L16.8284 12.6L15.4142 11.1858L14 12.6ZM12.6 14L11.1858 15.4142L12.6 16.8284L14.0142 15.4142L12.6 14ZM7 8.4L8.41421 6.98579L7 5.57157L5.58579 6.98579L7 8.4ZM2.81421 12.5858L1.41421 11.1858L-1.41421 14.0142L-0.0142132 15.4142L2.81421 12.5858ZM1.41421 14.0142L7.01421 8.41421L4.18579 5.58579L-1.41421 11.1858L1.41421 14.0142ZM7.01421 5.58579L1.41421 -0.0142135L-1.41421 2.81421L4.18579 8.41421L7.01421 5.58579ZM1.41421 2.81421L2.81421 1.41421L-0.0142135 -1.41421L-1.41421 -0.0142135L1.41421 2.81421ZM-0.0142135 1.41421L5.58579 7.01421L8.41421 4.18579L2.81421 -1.41421L-0.0142135 1.41421ZM8.41421 7.01421L14.0142 1.41421L11.1858 -1.41421L5.58579 4.18579L8.41421 7.01421ZM11.1858 1.41421L12.5858 2.81421L15.4142 -0.0142132L14.0142 -1.41421L11.1858 1.41421ZM12.5858 -0.0142135L6.98579 5.58579L9.81421 8.41421L15.4142 2.81421L12.5858 -0.0142135ZM6.98579 8.41421L12.5858 14.0142L15.4142 11.1858L9.81421 5.58579L6.98579 8.41421ZM12.5858 11.1858L11.1858 12.5858L14.0142 15.4142L15.4142 14.0142L12.5858 11.1858ZM14.0142 12.5858L8.41421 6.98579L5.58579 9.81421L11.1858 15.4142L14.0142 12.5858ZM5.58579 6.98579L-0.0142135 12.5858L2.81421 15.4142L8.41421 9.81421L5.58579 6.98579Z" fill="#1F1F1F" mask="url(#path-1-inside-1_598_4568)"/>
</svg>
